# Blender v2.78 (sub 0) OBJ File: 'dart.blend'
# www.blender.org
mtllib dart.mtl
o Cube
v 0.000000 0.000000 1.000000
v 0.500000 0.500000 -0.500000
v -0.500000 -0.500000 0.000000
v -0.500000 0.500000 0.000000
v -0.500000 -0.500000 -0.500000
v -0.500000 0.500000 -0.500000
v 0.500000 -0.500000 0.000000
v 0.500000 0.500000 0.000000
v 0.500000 -0.500000 -0.500000
v 0.250000 0.250000 -0.500000
v -0.250000 -0.250000 -0.500000
v -0.250000 0.250000 -0.500000
v 0.250000 -0.250000 -0.500000
v 0.250000 -0.250000 -1.000000
v -0.250000 -0.250000 -1.000000
v 0.250000 0.250000 -1.000000
v -0.250000 0.250000 -1.000000
v -0.250000 0.250000 -1.000000
v 0.250000 0.250000 -1.000000
v 0.250000 -0.250000 -1.000000
v -0.250000 -0.250000 -1.000000
vt 0.5002 0.4634
vt 0.8454 0.3090
vt 0.8454 0.6178
vt 0.3454 0.3090
vt 0.3454 0.0002
vt 0.4998 0.0002
vt 0.4998 0.3090
vt 0.3454 0.6178
vt 0.0002 0.4634
vt 0.8454 0.0002
vt 0.9998 0.0002
vt 0.9998 0.3090
vt 0.0002 0.1546
vt 0.5002 0.1546
vt 0.6768 0.6595
vt 0.9856 0.6595
vt 0.9856 0.9683
vt 0.6768 0.9683
vt 0.9998 0.6178
vt 0.4998 0.6178
vt 0.3417 0.6585
vt 0.4961 0.6585
vt 0.4961 0.8129
vt 0.3417 0.8129
vt 0.0329 0.6585
vt 0.1873 0.6585
vt 0.1873 0.8129
vt 0.0329 0.8129
vt 0.6504 0.6585
vt 0.6504 0.8129
vt 0.0329 0.9850
vt 0.0329 0.8306
vt 0.1873 0.8306
vt 0.1873 0.9850
vn -0.8944 0.0000 0.4472
vn 0.0000 -1.0000 0.0000
vn 0.8944 0.0000 0.4472
vn 0.0000 1.0000 0.0000
vn 0.0000 -0.8944 0.4472
vn 0.0000 0.8944 0.4472
vn 0.0000 0.0000 -1.0000
vn -1.0000 0.0000 0.0000
vn 1.0000 0.0000 0.0000
usemtl Material.002
s off
f 1/1/1 4/2/1 3/3/1
f 7/4/2 3/5/2 5/6/2 9/7/2
f 8/8/3 1/9/3 7/4/3
f 4/2/4 8/10/4 2/11/4 6/12/4
f 1/13/5 3/5/5 7/4/5
f 1/14/6 8/10/6 4/2/6
f 6/15/7 2/16/7 9/17/7 5/18/7
f 3/3/8 4/2/8 6/12/8 5/19/8
f 8/8/9 7/4/9 9/7/9 2/20/9
f 11/21/8 12/22/8 17/23/8 15/24/8
f 10/25/9 13/26/9 14/27/9 16/28/9
f 12/22/4 10/29/4 16/30/4 17/23/4
f 13/26/2 11/21/2 15/24/2 14/27/2
f 18/31/7 19/32/7 20/33/7 21/34/7
