# Blender v2.78 (sub 0) OBJ File: 'pony.blend'
# www.blender.org
mtllib pony.mtl
v 0.272074 1.415185 -2.001248
v 0.272074 2.205305 -2.001248
v 0.272075 1.415186 -0.025973
v 0.272075 2.205306 -0.025973
v -0.304331 1.415185 -2.001248
v -0.304330 2.205305 -2.001248
v -0.304330 1.415186 -0.025973
v -0.304330 2.205306 -0.025973
v 0.272075 2.205306 -0.705390
v -0.304330 2.205306 -0.705930
v 0.272075 2.900394 -0.788931
v 0.272075 2.900394 -0.109515
v -0.304330 2.900394 -0.109515
v -0.304330 2.900394 -0.788467
v 0.272075 3.952998 -0.788931
v 0.272075 3.952998 -0.109515
v -0.304330 3.952998 -0.109515
v -0.304330 3.952998 -0.788468
v 0.272075 2.900394 0.169579
v -0.304330 2.900394 0.169579
v 0.272075 3.952998 0.169579
v -0.304330 3.952998 0.169579
v 0.272075 2.205306 -0.705390
v 0.272075 2.205306 -0.025973
v 0.272075 2.900394 -0.788931
v 0.272075 2.900394 -0.109515
v 0.272075 2.205306 -0.705390
v 0.272075 2.205306 -0.025973
v 0.272075 2.900394 -0.788931
v 0.272075 2.900394 -0.109515
v 0.586307 1.415185 -2.001248
v 0.586307 2.205305 -2.001248
v 0.586307 2.205306 -0.705390
v 0.586307 2.205306 -0.025973
v 0.586307 1.415186 -0.025973
v 0.586307 2.900394 -0.788931
v 0.586307 2.900394 -0.109515
v 0.586307 3.952998 -0.788931
v 0.586307 3.952998 -0.109515
v 0.586307 3.952998 0.169579
v 0.586307 2.900394 0.169579
v -0.607261 2.205306 -0.025973
v -0.607261 1.415186 -0.025973
v -0.607261 2.205306 -0.705930
v -0.607261 2.205305 -2.001248
v -0.607261 1.415185 -2.001248
v -0.607261 2.900394 -0.109515
v -0.607261 2.900394 -0.788467
v -0.607261 3.952998 -0.109515
v -0.607261 3.952998 -0.788467
v -0.607261 2.900394 0.169579
v -0.607261 3.952998 0.169579
v 0.272075 3.952998 -0.609805
v -0.607261 3.952998 -0.609805
v -0.304330 3.952998 -0.609805
v 0.586307 3.952998 -0.609805
v 0.429332 4.545237 -0.612137
v 0.429191 4.545377 -0.788931
v -0.454285 4.543867 -0.609805
v -0.454285 4.543867 -0.788467
v 0.272075 4.388261 -0.609805
v -0.607261 4.390892 -0.788467
v -0.607261 4.390891 -0.609805
v 0.586307 4.388261 -0.788931
v -0.304330 4.393911 -0.609805
v 0.586307 4.388261 -0.609805
v 0.272075 4.388261 -0.788931
v -0.304330 4.393911 -0.788468
v -0.607261 3.448136 0.169579
v 0.272075 3.448136 0.169579
v 0.586307 3.448136 0.169579
v -0.304330 3.448136 0.169579
v 0.272075 3.448133 -0.788931
v 0.586307 3.448133 -0.109515
v -0.304330 3.448133 -0.788467
v 0.586307 3.448133 -0.788931
v -0.607261 3.448133 -0.788467
v -0.607261 3.448133 -0.109515
v -0.455795 3.448136 0.169579
v -0.016128 3.448136 0.169579
v 0.429191 3.448136 0.169579
v 0.586307 3.448133 -0.449223
v -0.607261 3.448133 -0.448991
v 0.586307 3.448134 0.104820
v -0.455796 3.448133 -0.788467
v 0.429191 3.448133 -0.788931
v -0.607261 3.448135 0.104820
v -0.016128 3.448133 -0.788699
v 0.272075 2.900394 0.711112
v -0.304330 2.900394 0.711113
v 0.272075 3.448136 0.711112
v 0.586307 3.448136 0.711112
v 0.586307 2.900394 0.711112
v -0.607261 2.900394 0.711113
v -0.607261 3.448136 0.711113
v -0.304330 3.448136 0.711112
v -0.455795 3.448136 0.711112
v -0.016127 3.448136 0.711112
v 0.429191 3.448136 0.711112
v -0.121977 3.952998 -0.788614
v 0.054136 3.952998 -0.788756
v 0.054136 3.952998 0.169579
v -0.121977 3.952998 0.169579
v 0.054136 3.952998 -0.609805
v -0.121977 3.952998 -0.609805
v -0.607261 3.952998 -0.257091
v 0.054136 3.952998 -0.109515
v -0.121977 3.952998 -0.109515
v 0.586307 3.952998 -0.257086
v 0.272075 3.952998 -0.257088
v -0.304330 3.952998 -0.257090
v -0.121977 3.952998 -0.257089
v 0.054136 3.952998 -0.257089
v -0.304330 1.415186 -0.564835
v -0.304330 1.415185 -1.564227
v -0.121977 4.653221 0.196716
v 0.054136 4.653221 0.196717
v -0.121977 4.577203 0.295024
v 0.054136 4.577203 0.295024
v -0.607261 1.415185 -1.564227
v -0.607261 1.415186 -0.564835
v 0.586307 1.415185 -0.564835
v 0.586307 1.415185 -1.564227
v 0.272075 1.415185 -0.564835
v 0.272074 1.415185 -1.564227
v 0.272074 -0.011564 -1.564227
v 0.272074 -0.011564 -2.001248
v -0.304330 -0.011564 -0.564835
v -0.304330 -0.011564 -0.025973
v 0.586307 -0.011564 -2.001248
v 0.586307 -0.011564 -1.564227
v 0.586307 -0.011564 -0.025973
v 0.272075 -0.011564 -0.025973
v -0.607261 -0.011564 -0.564835
v -0.607261 -0.011564 -0.025973
v -0.304331 -0.011564 -2.001248
v -0.607261 -0.011564 -2.001248
v -0.607261 -0.011564 -1.564227
v -0.304331 -0.011564 -1.564227
v 0.586307 -0.011564 -0.564835
v 0.272075 -0.011564 -0.564835
v -0.304330 2.003305 -2.001248
v 0.065086 1.415185 -2.001248
v -0.088763 1.415185 -2.001248
v 0.586307 2.003305 -2.001248
v -0.607261 2.003305 -2.001248
v 0.272074 2.003305 -2.001248
v -0.088763 2.205305 -2.001248
v 0.065086 2.205305 -2.001248
v 0.065086 2.003305 -2.001248
v -0.088763 2.003305 -2.001248
v -0.088763 2.290372 -2.234181
v 0.065086 2.290372 -2.234181
v -0.088763 2.078048 -3.254437
v 0.065086 2.078048 -3.254437
v 0.065086 1.753571 -2.676415
v -0.088763 1.753571 -2.676415
v 0.065086 1.663102 -3.359674
v -0.088763 1.663102 -3.359674
v 0.065086 2.003305 -3.994454
v -0.088763 2.003305 -3.994454
v 0.065086 1.733459 -3.665977
v -0.088763 1.733459 -3.665977
vt 0.8065 0.3605
vt 0.8808 0.3605
vt 0.8808 0.3373
vt 0.8808 0.3142
vt 0.8065 0.3142
vt 0.1301 0.4307
vt 0.0452 0.4307
vt 0.0452 0.5471
vt 0.1301 0.5471
vt 0.5317 0.5492
vt 0.5317 0.4492
vt 0.4871 0.4492
vt 0.4871 0.5492
vt 0.2223 0.3284
vt 0.2540 0.3284
vt 0.2540 0.3581
vt 0.2223 0.3581
vt 0.7145 0.2122
vt 0.7145 0.1478
vt 0.6296 0.1478
vt 0.6296 0.2122
vt 0.6613 0.2122
vt 0.6840 0.2122
vt 0.3547 0.5192
vt 0.3547 0.3284
vt 0.4396 0.3284
vt 0.4396 0.5192
vt 0.4091 0.5192
vt 0.3864 0.5192
vt 0.3088 0.7973
vt 0.3088 0.7562
vt 0.3534 0.7562
vt 0.3534 0.7973
vt 0.6166 0.4369
vt 0.6166 0.5370
vt 0.6166 0.5370
vt 0.6166 0.4369
vt 0.1301 0.3284
vt 0.0452 0.3284
vt 0.2771 0.9016
vt 0.1776 0.9134
vt 0.1778 0.8103
vt 0.2771 0.7985
vt 0.4871 0.7983
vt 0.4871 0.7134
vt 0.5894 0.7134
vt 0.5894 0.7983
vt 0.2239 0.6561
vt 0.2560 0.6561
vt 0.2560 0.6825
vt 0.2239 0.6825
vt 0.3072 0.4447
vt 0.3072 0.3581
vt 0.3534 0.3581
vt 0.3534 0.4447
vt 0.6701 0.7134
vt 0.6701 0.7558
vt 0.6701 0.7983
vt 0.1776 0.4447
vt 0.2223 0.4447
vt 0.2223 0.6549
vt 0.1776 0.6549
vt 0.7964 0.1418
vt 0.7157 0.1418
vt 0.7157 0.2216
vt 0.7964 0.2216
vt 0.2239 0.7562
vt 0.2560 0.7562
vt 0.2560 0.7973
vt 0.2239 0.7973
vt 0.6166 0.4492
vt 0.6166 0.4081
vt 0.5317 0.4081
vt 0.9519 0.4912
vt 0.9519 0.5914
vt 0.9073 0.5914
vt 0.9073 0.4912
vt 0.6166 0.5493
vt 0.6166 0.5493
vt 0.6166 0.5370
vt 0.6166 0.5493
vt 0.6166 0.4492
vt 0.0006 0.8736
vt 0.1000 0.8616
vt 0.1000 0.7585
vt 0.0006 0.7704
vt 0.6166 0.4369
vt 0.6166 0.4492
vt 0.2916 0.0006
vt 0.1007 0.0006
vt 0.0006 0.0006
vt 0.0006 0.1170
vt 0.0800 0.1170
vt 0.2272 0.1170
vt 0.2916 0.1170
vt 0.2916 0.0304
vt 0.7964 0.1007
vt 0.7964 0.0006
vt 0.7157 0.0006
vt 0.7157 0.0506
vt 0.7157 0.1007
vt 0.6677 0.7018
vt 0.6677 0.6702
vt 0.6677 0.6607
vt 0.1776 0.7973
vt 0.1776 0.7562
vt 0.6629 0.4369
vt 0.6629 0.5370
vt 0.6629 0.5493
vt 0.6629 0.4492
vt 0.6641 0.6607
vt 0.6641 0.6838
vt 0.6641 0.7070
vt 0.5894 0.8445
vt 0.4858 0.3284
vt 0.4858 0.5192
vt 0.6629 0.4081
vt 0.1764 0.5471
vt 0.1764 0.4307
vt 0.6182 0.6249
vt 0.6629 0.6249
vt 0.6629 0.6894
vt 0.6403 0.7119
vt 0.6182 0.6898
vt 0.5837 0.3271
vt 0.4836 0.3271
vt 0.2928 0.3271
vt 0.2928 0.2974
vt 0.2928 0.2108
vt 0.3571 0.2108
vt 0.5044 0.2108
vt 0.5837 0.2108
vt 0.9267 0.9946
vt 0.8267 0.9946
vt 0.8267 0.9139
vt 0.8767 0.9139
vt 0.9267 0.9139
vt 0.7384 0.5323
vt 0.6665 0.7018
vt 0.6665 0.6702
vt 0.6665 0.6607
vt 0.7384 0.4912
vt 0.9519 0.7821
vt 0.9073 0.7821
vt 0.4871 0.4081
vt 0.6182 0.5505
vt 0.6653 0.6830
vt 0.6629 0.5505
vt 0.3088 0.7345
vt 0.3534 0.7345
vt 0.1776 0.3581
vt 0.1776 0.3284
vt 0.0006 0.4307
vt 0.0006 0.5471
vt 0.1301 0.7573
vt 0.1764 0.7573
vt 0.6720 0.3271
vt 0.6296 0.3271
vt 0.6296 0.2474
vt 0.6720 0.2474
vt 0.2560 0.7345
vt 0.2239 0.7345
vt 0.1776 0.6825
vt 0.1776 0.7345
vt 0.4871 0.6249
vt 0.5333 0.6249
vt 0.5333 0.6890
vt 0.5102 0.7121
vt 0.4871 0.6890
vt 0.9977 0.5796
vt 0.9531 0.5796
vt 0.9531 0.6446
vt 0.9752 0.6667
vt 0.9977 0.6441
vt 0.7384 0.6323
vt 0.7384 0.6060
vt 0.8029 0.6060
vt 0.8029 0.6323
vt 0.7883 0.3115
vt 0.7620 0.3115
vt 0.7620 0.2474
vt 0.7883 0.2474
vt 0.9531 0.5784
vt 0.9994 0.5784
vt 0.9994 0.5143
vt 0.9763 0.4912
vt 0.9531 0.5143
vt 0.7789 0.4156
vt 0.8053 0.4156
vt 0.8053 0.3515
vt 0.7789 0.3515
vt 0.7384 0.6060
vt 0.7384 0.6323
vt 0.8034 0.6323
vt 0.8034 0.6060
vt 0.8255 0.6060
vt 0.8255 0.6323
vt 0.7792 0.3284
vt 0.8053 0.3284
vt 0.7160 0.2228
vt 0.7421 0.2228
vt 0.7421 0.2459
vt 0.7157 0.2459
vt 0.5317 0.9264
vt 0.6166 0.9264
vt 0.6166 0.8458
vt 0.5741 0.8458
vt 0.5317 0.8458
vt 0.8808 0.4900
vt 0.8808 0.4677
vt 0.8808 0.4454
vt 0.8065 0.4454
vt 0.8065 0.4900
vt 0.8808 0.4029
vt 0.8065 0.3926
vt 0.8065 0.4185
vt 0.7605 0.8469
vt 0.7605 0.9276
vt 0.6808 0.9276
vt 0.6808 0.8469
vt 0.7052 0.4900
vt 0.7552 0.4900
vt 0.8053 0.4900
vt 0.7269 0.4156
vt 0.7052 0.4156
vt 0.6641 0.6323
vt 0.6641 0.5823
vt 0.6641 0.5323
vt 0.7384 0.5540
vt 0.6641 0.4900
vt 0.5524 0.2241
vt 0.6641 0.4156
vt 0.2251 0.9146
vt 0.7279 0.2241
vt 0.2697 0.9146
vt 0.2697 0.9953
vt 0.2251 0.9953
vt 0.4871 0.5505
vt 0.2854 0.2241
vt 0.5333 0.5505
vt 0.5524 0.2241
vt 0.8016 0.8469
vt 0.8016 0.9276
vt 0.5758 0.5505
vt 0.5914 0.6249
vt 0.5654 0.6249
vt 0.5094 0.8458
vt 0.4871 0.8458
vt 0.4871 0.9264
vt 0.9742 0.9139
vt 0.9511 0.9139
vt 0.9279 0.9139
vt 0.9279 0.9946
vt 0.9742 0.9946
vt 0.6072 0.3271
vt 0.6072 0.2474
vt 0.5317 0.3284
vt 0.4871 0.3284
vt 0.7376 0.3271
vt 0.7145 0.3271
vt 0.7145 0.2474
vt 0.7376 0.2474
vt 0.6166 0.3284
vt 0.6629 0.3284
vt 0.7607 0.3271
vt 0.7607 0.2474
vt 0.5849 0.3271
vt 0.5849 0.2474
vt 0.5849 0.1478
vt 0.6296 0.0006
vt 0.5849 0.0006
vt 0.2820 0.7562
vt 0.2820 0.7973
vt 0.3088 0.6825
vt 0.3534 0.6825
vt 0.2820 0.6562
vt 0.2820 0.6825
vt 0.3088 0.6562
vt 0.6881 0.2134
vt 0.6881 0.2393
vt 0.5849 0.2393
vt 0.5849 0.2134
vt 0.2820 0.7345
vt 0.9677 0.8944
vt 0.9860 0.9063
vt 0.9860 0.7834
vt 0.9677 0.7849
vt 0.8072 0.8449
vt 0.8255 0.8567
vt 0.8255 0.9663
vt 0.8072 0.9678
vt 0.5790 0.9536
vt 0.5790 0.9277
vt 0.4871 0.9277
vt 0.4871 0.9536
vt 0.6641 0.6595
vt 0.6641 0.6335
vt 0.6786 0.6335
vt 0.6786 0.6595
vt 0.3534 0.6549
vt 0.3072 0.6549
vt 0.6641 0.8458
vt 0.6178 0.8458
vt 0.6178 0.9930
vt 0.6641 0.9930
vt 0.1776 0.9146
vt 0.1776 0.9940
vt 0.2239 0.9940
vt 0.2239 0.9146
vt 0.9682 0.0006
vt 0.9236 0.0006
vt 0.9236 0.2108
vt 0.9682 0.2108
vt 0.7145 0.0006
vt 0.0006 0.9541
vt 0.0855 0.9541
vt 0.0855 0.8748
vt 0.0006 0.8748
vt 0.9502 0.2763
vt 0.9502 0.2120
vt 0.9055 0.2120
vt 0.9055 0.2763
vt 0.3547 0.9958
vt 0.3993 0.9958
vt 0.3993 0.9164
vt 0.3547 0.9164
vt 0.9043 0.2120
vt 0.8580 0.2120
vt 0.8580 0.2763
vt 0.9043 0.2763
vt 0.4202 0.7050
vt 0.4846 0.7050
vt 0.4846 0.9152
vt 0.4202 0.9152
vt 0.1012 0.7585
vt 0.1475 0.7585
vt 0.1475 0.9687
vt 0.1012 0.9687
vt 0.9061 0.7026
vt 0.8267 0.7026
vt 0.8267 0.9127
vt 0.9061 0.9127
vt 0.0006 0.7573
vt 0.0452 0.7573
vt 0.9283 0.2798
vt 0.8821 0.2798
vt 0.8821 0.4900
vt 0.9283 0.4900
vt 0.3547 0.7050
vt 0.4190 0.7050
vt 0.4190 0.9152
vt 0.3547 0.9152
vt 0.7461 0.6335
vt 0.8255 0.6335
vt 0.8255 0.8437
vt 0.7461 0.8437
vt 0.9224 0.0006
vt 0.8580 0.0006
vt 0.8580 0.2108
vt 0.9224 0.2108
vt 0.5044 0.0006
vt 0.5837 0.0006
vt 0.2272 0.3271
vt 0.2916 0.3271
vt 0.9296 0.2798
vt 0.9742 0.2798
vt 0.9742 0.4900
vt 0.9296 0.4900
vt 0.9061 0.4912
vt 0.8267 0.4912
vt 0.8267 0.7014
vt 0.9061 0.7014
vt 0.1713 0.7585
vt 0.1487 0.7585
vt 0.1487 0.8579
vt 0.1713 0.8579
vt 0.3072 0.3284
vt 0.3534 0.3284
vt 0.2540 0.4447
vt 0.2767 0.3581
vt 0.2767 0.4447
vt 0.2767 0.3284
vt 0.6965 0.6396
vt 0.7256 0.6335
vt 0.7449 0.6646
vt 0.2888 0.9817
vt 0.3185 0.9834
vt 0.2783 0.9467
vt 0.4091 0.5535
vt 0.3864 0.5535
vt 0.4091 0.7038
vt 0.3864 0.7038
vt 0.7449 0.8181
vt 0.3185 0.7985
vt 0.1487 0.9586
vt 0.1713 0.9586
vt 0.8568 0.1832
vt 0.8273 0.0006
vt 0.8007 0.1033
vt 0.7976 0.2047
vt 0.6882 0.8457
vt 0.6808 0.7444
vt 0.8124 0.2486
vt 0.8568 0.2927
vt 0.3197 0.9075
vt 0.3423 0.9075
vt 0.3423 0.8591
vt 0.3197 0.8591
vt 0.9073 0.8049
vt 0.9665 0.7834
vt 0.9665 0.8929
vt 0.9221 0.8488
vt 0.3197 0.7985
vt 0.3423 0.7985
vt 0.3423 0.8140
vt 0.3197 0.8140
vn 0.0000 0.0000 1.0000
vn 0.0000 -1.0000 -0.0000
vn 0.0000 0.0000 -1.0000
vn 0.0000 1.0000 -0.0000
vn 0.0000 0.1193 0.9929
vn -1.0000 0.0000 0.0000
vn 0.0001 -0.1186 -0.9929
vn -0.0008 -0.0000 -1.0000
vn 1.0000 -0.0000 -0.0000
vn 0.0000 0.0023 1.0000
vn -0.7071 0.7071 0.0000
vn 0.7071 0.7071 0.0000
vn -0.7068 0.7074 0.0006
vn 0.0000 0.5439 -0.8392
vn -0.0000 -0.5439 0.8392
vn -0.0000 0.7911 0.6117
vn 0.0000 -0.9379 0.3469
vn 0.0000 0.9393 0.3430
vn 0.0000 0.9790 -0.2037
vn -0.0000 -0.9913 0.1313
vn 0.0000 -0.7727 -0.6348
vn 0.0000 0.9949 -0.1005
vn -0.0000 -0.9746 -0.2239
usemtl Material
s off
f 21/1/1 70/2/1 81/3/1 71/4/1 40/5/1
f 4/6/1 8/7/1 7/8/1 3/9/1
f 14/10/2 13/11/2 47/12/2 48/13/2
f 6/14/3 148/15/3 151/16/3 142/17/3
f 1/18/2 125/19/2 115/20/2 5/21/2 144/22/2 143/23/2
f 6/24/4 10/25/4 9/26/4 2/27/4 149/28/4 148/29/4
f 22/30/4 17/31/4 49/32/4 52/33/4
f 4/34/1 9/35/1 23/36/1 24/37/1
f 8/7/5 4/6/5 12/38/5 13/39/5
f 10/40/6 8/41/6 13/42/6 14/43/6
f 9/44/7 10/45/7 14/46/7 11/47/7
f 15/48/4 101/49/4 104/50/4 53/51/4
f 1/52/3 147/53/3 145/54/3 31/55/3
f 11/47/8 14/46/8 75/56/8 88/57/8 73/58/8
f 46/59/3 5/60/3 136/61/3 137/62/3
f 41/63/9 71/64/9 92/65/9 93/66/9
f 16/67/4 107/68/4 102/69/4 21/70/4
f 13/11/2 12/71/2 19/72/2 20/73/2
f 8/74/4 10/75/4 44/76/4 42/77/4
f 23/36/1 25/78/1 29/79/1 27/80/1
f 9/35/1 11/81/1 25/78/1 23/36/1
f 11/81/1 12/71/1 26/82/1 25/78/1
f 12/71/1 4/34/1 24/37/1 26/82/1
f 28/83/9 27/84/9 29/85/9 30/86/9
f 24/37/1 23/36/1 27/80/1 28/87/1
f 26/82/1 24/37/1 28/87/1 30/88/1
f 25/78/1 26/82/1 30/88/1 29/79/1
f 32/89/9 33/90/9 34/91/9 35/92/9 122/93/9 123/94/9 31/95/9 145/96/9
f 37/97/9 36/98/9 76/99/9 82/100/9 74/101/9
f 37/97/9 74/102/9 84/103/9 71/104/9 41/63/9
f 16/67/4 21/70/4 40/105/4 39/106/4
f 9/35/4 4/34/4 34/107/4 33/108/4
f 12/71/2 11/81/2 36/109/2 37/110/2
f 11/47/3 73/111/3 86/112/3 76/113/3 36/114/3
f 2/27/4 9/26/4 33/115/4 32/116/4
f 19/72/2 12/71/2 37/110/2 41/117/2
f 4/6/1 3/9/1 35/118/1 34/119/1
f 18/120/3 50/121/3 62/122/3 60/123/3 68/124/3
f 42/125/6 44/126/6 45/127/6 146/128/6 46/129/6 120/130/6 121/131/6 43/132/6
f 48/133/6 47/134/6 78/135/6 83/136/6 77/137/6
f 49/138/6 78/139/6 87/140/6 69/141/6 52/142/6
f 10/75/4 6/143/4 45/144/4 44/76/4
f 13/11/2 20/73/2 51/145/2 47/12/2
f 18/120/3 75/146/3 85/147/3 77/148/3 50/121/3
f 17/31/4 111/149/4 106/150/4 49/32/4
f 6/14/3 142/17/3 146/151/3 45/152/3
f 7/8/1 8/7/1 42/153/1 43/154/1
f 35/118/1 3/9/1 133/155/1 132/156/1
f 80/157/4 72/158/4 96/159/4 98/160/4
f 53/51/4 104/50/4 113/161/4 110/162/4
f 56/163/4 53/51/4 110/162/4 109/164/4
f 38/165/3 15/166/3 67/167/3 58/168/3 64/169/3
f 54/170/1 55/171/1 65/172/1 59/173/1 63/174/1
f 50/175/6 54/176/6 63/177/6 62/178/6
f 15/179/6 53/180/6 61/181/6 67/182/6
f 53/183/10 56/184/10 66/185/10 57/186/10 61/187/10
f 56/188/9 38/189/9 64/190/9 66/191/9
f 55/192/9 18/193/9 68/194/9 65/195/9
f 59/196/11 60/197/11 62/178/11 63/177/11
f 59/196/12 65/195/12 68/194/12 60/197/12
f 57/198/12 66/191/12 64/190/12 58/199/12
f 57/200/13 58/201/13 67/202/13 61/203/13
f 90/204/1 89/205/1 91/206/1 98/207/1 96/208/1
f 69/209/1 79/210/1 72/211/1 22/212/1 52/213/1
f 72/211/1 80/214/1 70/2/1 21/1/1 102/215/1 103/216/1 22/212/1
f 69/217/6 51/218/6 94/219/6 95/220/6
f 74/221/9 82/222/9 76/223/9 38/189/9 56/188/9 109/224/9 39/225/9
f 77/226/6 83/227/6 78/228/6 49/138/6 106/229/6 54/176/6 50/175/6
f 71/230/9 84/231/9 74/221/9 39/225/9 40/232/9
f 77/233/3 85/234/3 75/235/3 14/236/3 48/237/3
f 76/238/3 86/239/3 73/240/3 15/166/3 38/165/3
f 69/217/6 87/241/6 78/242/6 47/243/6 51/218/6
f 73/240/8 88/244/8 75/146/8 18/120/8 100/245/8 101/246/8 15/166/8
f 90/204/1 96/208/1 97/247/1 95/248/1 94/249/1
f 92/250/1 99/251/1 91/252/1 89/253/1 93/254/1
f 72/158/4 79/255/4 97/256/4 96/159/4
f 51/145/2 20/73/2 90/257/2 94/258/2
f 81/259/4 70/260/4 91/261/4 99/262/4
f 70/260/4 80/157/4 98/160/4 91/261/4
f 20/73/2 19/72/2 89/263/2 90/257/2
f 19/72/2 41/117/2 93/264/2 89/263/2
f 71/265/4 81/259/4 99/262/4 92/266/4
f 79/255/4 69/267/4 95/268/4 97/256/4
f 120/269/2 115/20/2 114/270/2 121/271/2
f 102/69/4 107/68/4 108/272/4 103/273/4
f 103/273/4 108/272/4 17/31/4 22/30/4
f 109/164/4 110/162/4 16/67/4 39/106/4
f 106/150/4 111/149/4 55/274/4 54/275/4
f 104/50/4 101/49/4 100/276/4 105/277/4
f 105/277/4 100/276/4 18/278/4 55/274/4
f 110/162/4 113/161/4 107/68/4 16/67/4
f 113/279/14 112/280/14 116/281/14 117/282/14
f 108/272/4 112/283/4 111/149/4 17/31/4
f 111/149/4 112/283/4 105/277/4 55/274/4
f 105/277/4 112/283/4 113/161/4 104/50/4
f 107/284/9 113/285/9 117/286/9 119/287/9
f 112/288/6 108/289/6 118/290/6 116/291/6
f 108/292/15 107/293/15 119/294/15 118/295/15
f 117/296/16 116/297/16 118/298/16 119/299/16
f 1/52/3 31/55/3 130/300/3 127/301/3
f 122/302/2 124/303/2 125/304/2 123/305/2
f 133/306/2 141/307/2 140/308/2 132/309/2
f 115/310/1 120/311/1 138/312/1 139/313/1
f 115/20/2 125/19/2 124/314/2 114/270/2
f 114/315/2 124/316/2 3/317/2 7/318/2
f 136/319/2 139/320/2 138/321/2 137/322/2
f 134/323/2 128/324/2 129/325/2 135/326/2
f 131/327/2 126/328/2 127/329/2 130/330/2
f 120/331/6 46/332/6 137/333/6 138/334/6
f 124/335/3 122/336/3 140/337/3 141/338/3
f 114/339/9 7/340/9 129/341/9 128/342/9
f 7/8/1 43/154/1 135/343/1 129/344/1
f 123/345/1 125/346/1 126/347/1 131/348/1
f 125/349/6 1/350/6 127/351/6 126/352/6
f 3/353/6 124/354/6 141/355/6 133/356/6
f 5/357/9 115/358/9 139/359/9 136/360/9
f 43/132/6 121/131/6 134/361/6 135/362/6
f 31/95/9 123/94/9 131/363/9 130/364/9
f 121/365/3 114/366/3 128/367/3 134/368/3
f 122/369/9 35/370/9 132/371/9 140/372/9
f 150/373/17 151/374/17 157/375/17 156/376/17
f 146/151/3 142/17/3 5/60/3 46/59/3
f 145/54/3 147/53/3 2/377/3 32/378/3
f 142/17/3 151/16/3 144/379/3 5/60/3
f 144/379/3 151/16/3 150/380/3 143/381/3
f 143/381/3 150/380/3 147/53/3 1/52/3
f 147/53/3 150/380/3 149/382/3 2/377/3
f 151/383/6 148/384/6 152/385/6
f 149/386/9 150/387/9 153/388/9
f 148/29/18 149/28/18 153/389/18 152/390/18
f 152/390/19 153/389/19 155/391/19 154/392/19
f 151/383/6 152/385/6 154/393/6
f 153/388/9 150/387/9 155/394/9
f 156/376/20 157/375/20 159/395/20 158/396/20
f 155/397/9 150/398/9 156/399/9 158/400/9
f 151/383/6 154/393/6 159/401/6 157/402/6
f 155/397/9 158/400/9 162/403/9 160/404/9
f 161/405/21 160/406/21 162/407/21 163/408/21
f 159/409/6 154/410/6 161/411/6 163/412/6
f 154/413/22 155/414/22 160/406/22 161/405/22
f 158/415/23 159/416/23 163/408/23 162/407/23
