# Blender v2.78 (sub 0) OBJ File: 'puzzle_cube.blend'
# www.blender.org
mtllib puzzle_cube.mtl
v -0.500000 -0.500000 0.500000
v -0.500000 0.500000 0.500000
v -0.500000 -0.500000 -0.500000
v -0.500000 0.500000 -0.500000
v 0.500000 -0.500000 0.500000
v 0.500000 0.500000 0.500000
v 0.500000 -0.500000 -0.500000
v 0.500000 0.500000 -0.500000
vt 0.9998 0.0002
vt 0.6668 0.0002
vt 0.6668 0.3332
vt 0.9998 0.3332
vt 0.6665 0.3335
vt 0.3335 0.3335
vt 0.3335 0.6665
vt 0.6665 0.6665
vt 0.0002 0.6665
vt 0.3332 0.6665
vt 0.3332 0.9995
vt 0.0002 0.9995
vt 0.0002 0.3332
vt 0.3332 0.3332
vt 0.3332 0.6661
vt 0.0002 0.6661
vt 0.6665 0.3332
vt 0.6665 0.0002
vt 0.3335 0.0002
vt 0.3335 0.3332
vt 0.0002 0.0002
vt 0.3332 0.0002
vn -1.0000 0.0000 0.0000
vn 0.0000 0.0000 -1.0000
vn 1.0000 0.0000 0.0000
vn 0.0000 0.0000 1.0000
vn 0.0000 -1.0000 0.0000
vn 0.0000 1.0000 0.0000
usemtl Material
s off
f 2/1/1 4/2/1 3/3/1 1/4/1
f 4/5/2 8/6/2 7/7/2 3/8/2
f 8/9/3 6/10/3 5/11/3 7/12/3
f 6/13/4 2/14/4 1/15/4 5/16/4
f 1/17/5 3/18/5 7/19/5 5/20/5
f 6/13/6 8/21/6 4/22/6 2/14/6
